<svg width="17" height="21" viewBox="0 0 17 21" fill="none" xmlns="http://www.w3.org/2000/svg">
<path d="M0 2.5C0 1.11929 1.11929 0 2.5 0H14.5C15.8807 0 17 1.11929 17 2.5C17 3.88071 15.8807 5 14.5 5H2.5C1.11929 5 0 3.88071 0 2.5Z" fill="black"/>
<path d="M0 10.5C0 9.11929 1.11929 8 2.5 8H9.5C10.8807 8 12 9.11929 12 10.5C12 11.8807 10.8807 13 9.5 13H2.5C1.11929 13 0 11.8807 0 10.5Z" fill="black"/>
<path d="M0 18.5C0 17.1193 1.11929 16 2.5 16H3.5C4.88071 16 6 17.1193 6 18.5C6 19.8807 4.88071 21 3.5 21H2.5C1.11929 21 0 19.8807 0 18.5Z" fill="black"/>
</svg>
